<svg xmlns="http://www.w3.org/2000/svg" viewBox="0 0 377.08 549.74"><defs><style>.cls-1{opacity:0.33;}.cls-2{fill:#171717;}.cls-3{fill:#4b4b4b;}.cls-10,.cls-4{fill:#b3b4b5;}.cls-5{fill:#737275;}.cls-6,.cls-7{fill:none;stroke:#fff;}.cls-10,.cls-11,.cls-6,.cls-7{stroke-miterlimit:10;}.cls-6{stroke-width:6px;}.cls-7{stroke-width:3px;}.cls-11,.cls-8{fill:#d8d8d8;}.cls-9{fill:#828383;}.cls-10{stroke:#111;}.cls-10,.cls-11{stroke-width:2px;}.cls-11{stroke:#171717;}.cls-12{fill:#fff;}</style></defs><g id="Capa_8" data-name="Capa 8"><g class="cls-1"><path class="cls-2" d="M464.94,351a137.48,137.48,0,0,0-21.63-31.22c-1.73-1.91-3.8-3.48-6.6-2.38s-3.36,3.52-3.49,6.1c-.18,3.62-.64,7.2-1.08,10.79a157.16,157.16,0,0,1-16.92,53.63,142.78,142.78,0,0,1-8.07,13c-1.4,2.1-2.07,4.39-.78,6.81s3.55,2.7,6,2.6c4.08-.17,8.18-.13,12.25-.41,2.3-.16,2.68.42,1.84,2.5a115.93,115.93,0,0,1-15.75,27.67c-10.43,13.45-23.08,23.82-39.91,28.2-21.81,5.67-42.2-2.43-51.44-24.68a167.82,167.82,0,0,1-7.71-24.89c-.44-1.82,0-2.18,1.69-2.41A119.19,119.19,0,0,0,361,399.07c22.88-14.26,38.91-34.37,49.62-58.88,11.19-25.6,14.77-52.18,9.19-79.69-5.42-26.71-18.15-49.4-38.52-67.65a106.84,106.84,0,0,0-19.49-14.44,4.07,4.07,0,0,1,2.23-.88c7.46-1.46,14.91-3,22.37-4.38,15.65-3,31.31-5.82,46.95-8.82,4.46-.86,6.57-2.78,6.85-7.17a246,246,0,0,0,.74-25.9c-.12-3.11-1.35-5.84-4.25-7.36-2-1.06-4.3-1-6.53-.94-18.67.44-37.33,1-56,1.29-21.37.36-42.75.52-64.12.84-1.53,0-1.75-.44-1.84-1.84a3.92,3.92,0,0,1,2.51-4.29c9-4.58,17.11-10.39,23.58-18.19C344.9,88,348.9,73.21,345.9,57,341.51,33.81,323.18,17,299.68,13.49c-31.07-4.58-59,18.81-61,50.14-1.13,17.13,5.57,31.48,18,43.13A69,69,0,0,0,271,117a28.33,28.33,0,0,0,2.76,1.37,5.65,5.65,0,0,1,2.45,1.55,6.38,6.38,0,0,1,.9,2.15c.36,1.45.18,3.29-1.75,3.06a105.6,105.6,0,0,0-11.12-.23l-11.47-.08c-10.63-.07-21.25-.12-31.88-.23s-21.25-.28-31.87-.59c-12.63-.38-25.26-.74-37.89-1-4.48,0-7.28,2.53-7.88,7a18.49,18.49,0,0,0-.21,2.78c.17,8-.19,15.93.76,23.93.56,4.26,2.34,6.59,6.56,7.53,6.77,1.5,13.57,2.8,20.37,4.16,12.89,2.58,25.8,5.09,38.69,7.72,4.43.9,8.77,2.07,13.77,3.25-2.08,1.33-3.57,2.23-5,3.23A128.1,128.1,0,0,0,192,207.4c-16.55,20.32-25,43.93-27.55,69.76-1.64,16.82.6,33.33,5.53,49.45a128.26,128.26,0,0,0,42.92,63.54,121.37,121.37,0,0,0,59.84,26.19c1.45.21,2.42.48,1.93,2.38-2.32,8.95-4.82,17.81-8.91,26.18C256.64,463.61,238.46,473,218,469.29c-16.87-3.1-30.14-12.23-40.93-25.23-8.38-10.12-14.09-21.68-18.27-34.27,4.57,0,8.84,0,13,0,2.21,0,4.52-.1,5.52-2.38a6.68,6.68,0,0,0-.64-6.86q-2.6-3.77-5-7.68c-11.45-18.63-17-39.13-19.15-60.69-.32-3.41-.62-6.83-1-10.24-.22-2.28-.87-4.46-3.22-5.46-2.5-1-4.55.19-6.3,1.82a55.38,55.38,0,0,0-4.6,4.84,131.38,131.38,0,0,0-19.24,30.43,122.05,122.05,0,0,0-10.68,60.92,70.65,70.65,0,0,0,1.65,9.57c.53,2.48,1.66,4.77,4.53,5.41s4.52-1.23,6.09-3.06a45.29,45.29,0,0,0,2.91-4.23c1.68,5.17,3.16,10.1,4.87,14.94,10.31,29.31,28.76,52.21,54.66,69.21,17.23,11.32,36.53,17.76,56,23.76,12.4,3.84,24.7,7.9,35.48,15.5a149.61,149.61,0,0,1,14.24,12c3,2.68,6.56,2.8,8.89.12a54.28,54.28,0,0,1,4.45-4,91.38,91.38,0,0,1,29.44-18.12c11.07-4.28,22.47-7.52,33.77-11.08,21.11-6.65,40.35-16.37,56.66-31.73s27.88-33.83,35.88-54.65c1.82-4.76,3.27-9.66,4.91-14.54,2.07,2.59,4.65,6.54,8.49,5.93,3.31-.54,4.77-4,5.45-6.87a84.59,84.59,0,0,0,2.29-18.48C478.38,385.31,473.25,367.74,464.94,351ZM276.12,111.71c0,.34-.17.71-.56.72a1.17,1.17,0,0,1-.57-.16,12.86,12.86,0,0,1-1.14-.65c-1.06-.65-2.14-1.28-3.19-1.92a57.45,57.45,0,0,1-17.23-16.21A48.54,48.54,0,0,1,245,71.71a47.51,47.51,0,0,1,13.27-38.44,48.73,48.73,0,0,1,38.25-14A50,50,0,0,1,332,39.33a46.66,46.66,0,0,1,9.13,26.06,47.77,47.77,0,0,1-8.74,28.21,55.23,55.23,0,0,1-8.59,9.67,57.74,57.74,0,0,1-14.42,9.62,1.65,1.65,0,0,1-1.51.06,1.55,1.55,0,0,1-.52-.56,6,6,0,0,1-.41-2.85c0-1.16,0-2.31,0-3.47q0-3.42.26-6.83a8.25,8.25,0,0,1,.85-3.75,9.9,9.9,0,0,1,3.29-2.86,30.82,30.82,0,0,0,13.1-27.37,31.37,31.37,0,0,0-3.34-11.79A33,33,0,0,0,307.9,39.64a34.91,34.91,0,0,0-30.64-1.22c-9.49,4.2-17.08,13.09-18.52,23.37A28.65,28.65,0,0,0,260,74.59,36.08,36.08,0,0,0,270.31,90.2c1.12,1,2.41,1.81,3.43,2.91,2.8,3.07,2.55,6.92,2.55,10.76C276.29,106.48,276.33,109.1,276.12,111.71Zm-.67-24.64c-8-6.11-12.26-16.77-9.69-26.11,2.89-10.47,9.77-17.33,20.55-19.16,17.25-2.92,32.77,10.59,32.07,27.08-.29,7-4.74,15.28-10.45,18.65h-.09C307,74.41,290.36,72,282.06,78.21a12.86,12.86,0,0,0-4.78,8.16C277,87.81,276.77,88.07,275.45,87.07Zm7.8,23a189.85,189.85,0,0,1,.22-20.66c.6-6.84,3.31-8.22,9.62-8.26s7.38,2.92,8.14,6.21.56,7.54.61,10.26c.15,8.7-.41,18.34-.41,27,0,2.43-16.67,2.66-18-.06a3.93,3.93,0,0,1-.24-1.77C283.28,118.57,283.34,114.33,283.25,110.08ZM217,172.33q-31.2-6.86-62.61-12.67c-4.2-.78-5-1.5-5.2-5.78-.32-7.15-.48-14.3-.68-21.45-.07-2.36,1-3.44,3.55-3.36,14.94.46,29.9.73,44.85,1.19,25.72.8,51.46,1,77.2,1.14,36.42.15,72.84-.06,109.26-1q24.38-.61,48.75-1.41c2.79-.09,3.63,1,3.51,3.58-.35,7.46-.26,15-.62,22.42-.11,2.43-1.33,3.82-3.87,4.27-12.94,2.3-25.88,4.62-38.78,7.1-11.45,2.2-22.87,4.57-34.28,6.95a7.6,7.6,0,0,1-5.07-.61,141.45,141.45,0,0,0-17.32-6.81A140,140,0,0,0,243.27,169a129.91,129.91,0,0,0-12.62,5.73,3.53,3.53,0,0,1-2.43.31C224.47,174.13,220.71,173.23,217,172.33ZM472.27,413.65c-.63,3.11-.68,6.39-1.38,9.54-.15.67-.1,1.66-.95,1.87-1.05.27-1.36-.78-1.8-1.42a66.44,66.44,0,0,1-3.79-6.61c-.51-1-1-2-1.46-2.95q-.51-1.08-1.08-2.13-.29-.51-.6-1a6.44,6.44,0,0,0-.62-.92.32.32,0,0,0-.25-.14.43.43,0,0,0-.16.05c-.29.14-.34.33-.42.62l-.18.72c-.25,1.1-.46,2.21-.69,3.31s-.47,2.34-.75,3.5a146,146,0,0,1-5,16.51,137.31,137.31,0,0,1-9.56,20.81,154.74,154.74,0,0,1-14.13,21.2C414.66,495,395.89,507.82,373.89,516c-13.29,5-27,8.65-40.36,13.34-13,4.56-25.06,10.75-35.06,20.44-1.44,1.39-3.38,2.12-4.73,3.74-1.06,1.29-2.12.09-3-.71a130.87,130.87,0,0,0-11.92-10c-10.71-7.61-22.79-12.12-35.19-16.12C227.4,521.53,211.1,516.5,196,508.4a171.58,171.58,0,0,1-18.72-11.79c-1.48-1.06-2.64-2.57-4.11-3.66-9.44-7-17.1-15.77-23.9-25.32-3.07-4.32-5.41-10-8.81-13.91l-.11-.11.09-.13c-6.51-11.63-10.75-24.11-13.87-37l-1.44-5.94c-.2-.81-.26-1.64-.52-2.44a.52.52,0,0,0-.16-.29.41.41,0,0,0-.48,0,2.06,2.06,0,0,0-.59,1c-.18.43-.37.85-.55,1.27-.45,1-.92,2-1.46,2.94-1.31,2.28-2.82,4.45-4.24,6.66-.59.92-1.18,1.84-1.8,2.74-.22.34-.45.67-.7,1a1.6,1.6,0,0,1-.41.45c-.89-.27-1.51-5.65-1.66-7.14s-.29-3-.39-4.57c-.2-3.05-.28-6.11-.24-9.16a119.05,119.05,0,0,1,1.92-19.76A116.1,116.1,0,0,1,119,364.11c.24-.65.49-1.3.74-1.94.83-2.16,1.72-4.28,2.67-6.39s2-4.17,3-6.22,2.17-4.06,3.34-6,2.38-3.94,3.65-5.86,2.59-3.8,4-5.65,2.79-3.67,4.26-5.45c.73-.88,1.48-1.76,2.24-2.63.36-.41.73-.82,1.08-1.24a3.43,3.43,0,0,1,1.24-1c.5-.21.74.17.86.61a34.26,34.26,0,0,1,.86,5.9c.18,2.05.44,4.07.65,6.12.14,1.37.3,2.73.47,4.09q.85,6.87,2.29,13.63c1,4.45,2.1,8.87,3.46,13.22s2.9,8.6,4.67,12.79,3.77,8.33,6,12.34c1.11,2,2.28,4,3.49,6,.92,1.49,1.88,3,2.82,4.45a18.11,18.11,0,0,0,1,1.55c.31.4.59.83.35,1.34-.34.73-1.32.36-2,.36l-9.34,0L156,404a19.47,19.47,0,0,0-4.32.1c.17,2.6,1.28,5.49,2.13,7.95,6,17.13,15.58,33.92,29.09,45.9a67,67,0,0,0,34.34,16.56c21.23,3.33,42.08-4.89,52.7-26.1,4.62-9.22,7.22-19.06,9.89-28.91.24-.92,0-2.26,1.62-2,2.84.18,5.68.37,8.52.49a5.23,5.23,0,0,1-.53-1.93c-.1-1.24-.27-2.45-.45-3.67a120,120,0,0,1-45-9.94c-40.25-17.56-68.6-57-73.5-100.6-3.79-34.52,5.44-65.46,27.26-92.39,18.36-22.67,42.1-37,70.81-42.48a137.09,137.09,0,0,1,44.6-.83,108.51,108.51,0,0,1,37.65,12,128.1,128.1,0,0,1,29,21.57,136.65,136.65,0,0,1,12,13.42,112.42,112.42,0,0,1,22.29,48.36,132.46,132.46,0,0,1,2.23,31.42,119,119,0,0,1-3.3,22.84,128.69,128.69,0,0,1-20.24,45.34c-3,4.27-5.77,8.91-9.44,12.64-12.83,13-27.08,24.17-44.54,30.41a139.37,139.37,0,0,1-39.87,8.1c.19,1.26.37,2.52.47,3.79a4.86,4.86,0,0,1-.22,2c1.93-.08,3.86-.23,5.79-.48s1.79,1.23,2,2.23a148.84,148.84,0,0,0,5.71,20.54c3.67,9.91,8.46,19.15,17.13,25.75,3.95,3,8.45,4.93,13,6.75,15.77,4.68,30.58,1.7,44.87-5.58,3.62-1.85,6.82-4.34,10.29-6.41a137.74,137.74,0,0,0,15.71-15.69,114.86,114.86,0,0,0,20.07-37c.94-2.85.4-3.58-2.76-3.51-4.92.1-9.84.39-14.76.39-1.63,0-3.88.85-4.63-.52s1.17-2.74,2-4c12.26-18.51,19.63-38.85,23-60.73a91.82,91.82,0,0,0,1.24-13.23c0-.91-.07-2.94,1-3.32,1.29-.44,3.35,2.92,4.05,3.74,1.43,1.7,2.82,3.44,4.16,5.2,2.7,3.55,5.23,7.23,7.64,11A116.78,116.78,0,0,1,472.56,392,66.69,66.69,0,0,1,472.27,413.65Z" transform="translate(-101.16 -9.92)"/><path class="cls-2" d="M349.68,303.06a95.64,95.64,0,0,0-17.26-15.76c-6-4.34-12.33-8.28-18.48-12.35s-12.9-6.84-19.13-10.64c-8.31-5.05-17.84-11.1-22.77-19.88-6.33-11.25,1.93-21.14,12.2-25.79a15.68,15.68,0,0,1-.51-6.26c0-.35,0-.7.06-1a33.48,33.48,0,0,0-17.68,12.15,23.77,23.77,0,0,0-4.85,16c.57,6.52,5.42,10.9,9.95,15.1,10.78,10,24,16.66,36.56,24,10.77,6.26,21.3,13.08,30.4,21.58a70.63,70.63,0,0,1,5.46,5.62c5.95,6.95,10.67,15.28,11.11,24.6.91,19-14.45,33.88-31.08,41.18a65.21,65.21,0,0,1-7.63,2.8c-3.45,1-8.06,2.67-11.65,1.69-6-1.63,2.82-7.76,4.9-8.94,6.28-3.55,11.52-7.45,14-14.59a27,27,0,0,0,1.21-10,22.47,22.47,0,0,0-1.43-8.05,37.76,37.76,0,0,0-6.8-9.74C310.09,317.94,302.15,313,294,309c-7.41-3.65-14.74-7.68-21.87-11.86-10.28-6-20.24-13.18-27.23-23-10.19-14.35-12.57-32.68-2.6-47.82,9.19-14,22.86-20.51,39-22.64.58-.08,1.16-.13,1.75-.19a45.15,45.15,0,0,0-1.82-5.94,76.87,76.87,0,0,0-19.42,5.21,65.72,65.72,0,0,0-11.31,6.05,49.19,49.19,0,0,0-16.67,19c-.24.49-.47,1-.69,1.48-7.94,17.6-5,34.27,6.51,49.47,7.41,9.79,17.39,16.65,27.87,22.68,3.2,1.84,7.35,2.53,10,5.18a12.45,12.45,0,0,1,2.94,5.61,28.53,28.53,0,0,1,.65,7c.57,14.82.82,29.65,1.23,44.48,0,.92-.37,1.85-1.43,1.81a3.36,3.36,0,0,1-1.4-.46c-5.71-2.93-12.13-7-15.1-12.9a18.32,18.32,0,0,1,1.3-18.18,20,20,0,0,0,3-6.43c.95-4.25-.09-9.31-3.51-12.21s-8.54-3.23-12.8-1.83c-12.07,4-21.25,18.43-20,31.74,1,11.08,6.58,20,15.9,25.25,13.79,7.71,24.69,10.94,38.44,11a4.78,4.78,0,0,0,2.57-.48,1.54,1.54,0,0,0,.37-.35,4.9,4.9,0,0,1,.46-1,17.64,17.64,0,0,0-.12-4.23c-.12-2.89-.36-5.77-.64-8.64-.57-5.77-1.34-11.51-1.82-17.28-.58-7-.9-14-1.54-21-.23-2.58-.54-5.15-.63-7.73-.07-1.87-.27-4.29.56-6,1.24-2.62,5.6.61,6.92,1.56,2.49,1.79,6.18,4.16,6,7.62-.48,10.72-1,21.44-1.41,32.16q-.31,8-.54,16.09c0,1.2-.45,3.53-.39,5.57a4.4,4.4,0,0,1,2.86,3.82,69.78,69.78,0,0,0,49-20.59C365.18,343.84,364.25,320.38,349.68,303.06Zm-45.43,42.79q.22-7.43.44-14.86c.07-2.25.28-3.92.2-6.86,0-.4.77.4.88.5.7.66,1.54,1.21,2.3,1.8s1.77,1.41,2.61,2.16c.66.59,1.3,1.2,1.91,1.85a19.19,19.19,0,0,1,4.87,16.69,32.6,32.6,0,0,1-2.44,8c-2.13,4.83-6,8.23-10.62,10.59a.5.5,0,0,1-.72-.46C303.88,358.78,304.06,352.3,304.25,345.85Zm-19.95,31c-1.21,1.47-4,.85-5.81.59a60,60,0,0,1-20.06-6.31,77.93,77.93,0,0,1-8.39-4.66,29.54,29.54,0,0,1-12.28-22.65,24.66,24.66,0,0,1,.37-5.29,25.78,25.78,0,0,1,12.55-17.48c2.71-1.6,5.57-2.75,8.83-2.25,8.49,1.32-2.14,17.08-3.19,20.74a20.81,20.81,0,0,0,5.21,19.65c6.08,6,12.55,7.07,20.21,10C284,370,286.07,374.73,284.3,376.87Z" transform="translate(-101.16 -9.92)"/><path class="cls-2" d="M300.19,201.38c0,.61,0,1.21,0,1.82a84.94,84.94,0,0,1,13.17,2.08c10,2.43,20.43,6.52,27,14.86,6.19,7.86,6.88,18.73.29,26.59a14.31,14.31,0,0,1-5.95,4.2,4.65,4.65,0,0,1-6.28-2.66c-.95-2.27-.69-4.87-.43-7.25,1.15-10.56-4.91-19.75-13.5-25.28a37.21,37.21,0,0,0-14.65-5.46c-.19,2.1-.45,4.19-.76,6.28a27.39,27.39,0,0,1,12.7,4.6A22.62,22.62,0,0,1,321.32,243c-.89,6.37.88,10.33,5.47,12.67,4.78,2.47,11.66,1.29,15.69-2.3,12.19-10.82,12.4-28.35-.43-40.26a50.49,50.49,0,0,0-14.57-9.38,89.79,89.79,0,0,0-27.5-6.65C300.07,198.52,300.16,200,300.19,201.38Z" transform="translate(-101.16 -9.92)"/><path class="cls-2" d="M254.51,375.12a92.59,92.59,0,0,1-21-12.07A83.13,83.13,0,0,1,214,341.47a99,99,0,0,1-11.78-28.13c-8.08-31.68-2.17-61,19.74-85.78a94.76,94.76,0,0,1,26.94-20.87A115.93,115.93,0,0,1,261,201.21,95.4,95.4,0,0,1,281.56,196c-.66-1.66-1.72-3.66-2.47-5.4a105.08,105.08,0,0,0-28.64,8.81,99.32,99.32,0,0,0-22.74,14.72q-2.33,2-4.51,4.17c-6.19,6.12-12.23,12.48-16.74,20a94.31,94.31,0,0,0-11.59,30.3,102.64,102.64,0,0,0,1.53,46.57c6.29,23.21,19.86,43.1,40.08,56.35a101.76,101.76,0,0,0,52.64,16.18c.14-1.57.25-3.15.3-4.73a108.34,108.34,0,0,1-15.36-1.46C267.3,380.37,260.8,377.77,254.51,375.12Z" transform="translate(-101.16 -9.92)"/><path class="cls-2" d="M372,227.21A91.54,91.54,0,0,0,353.52,209c-15.17-11.44-34.56-17.78-53.76-18.92-.06,1.77,0,3.54.11,5.31a97.86,97.86,0,0,1,18.5,3.05A92.22,92.22,0,0,1,352.7,215.7c1.65,1.33,3.24,2.72,4.79,4.16,14.64,13.58,23.15,30.55,27.15,49.93a101.55,101.55,0,0,1,2,16.29l0,0a96.48,96.48,0,0,1-39.25,79.67,93.8,93.8,0,0,1-47.93,16.94q-.07,2.43-.3,4.83c2.3-.14,4.6-.33,6.89-.61,22.76-2.82,42.38-12.18,58.26-28.64a99.68,99.68,0,0,0,28-65.93A101.56,101.56,0,0,0,372,227.21Z" transform="translate(-101.16 -9.92)"/><path class="cls-2" d="M298.67,329c.12,13.59-1.4,28.13-2,41.7-.83,19.49-1.31,39-1.7,58.47-1.68-14.09-1.74-28.31-3.1-42.44-1.29-13.52-3.59-26.93-4.88-40.46-.42-4.45-.75-8.9-.92-13.36a14.58,14.58,0,0,0-.64-4.56c-.49-1.3-1.55-2.73-3-2.93.23,0,1.11,17.43,1.22,19,0,9.09,1.33,18.38,1.95,27.46l2,29,0,.27c1.36,19.6,2.89,39.15,6.05,58.56.47,2.89,2.23,1,2.6-.79,3.24-15.79,4-32.12,5.45-48.14,1-11,.95-22,1.11-33.05l.54-37.09c0-2.94-.75-4.45-2.31-6.84C300.59,333.08,298.67,329.83,298.67,329Z" transform="translate(-101.16 -9.92)"/><path class="cls-2" d="M320.23,179.9a4.87,4.87,0,0,0-1-.78c-2.34-1.43-4.63-2.9-7-4.26-2.59-1.5-5.18-3-7.85-4.39a47.85,47.85,0,0,0-7.19-3.37,6.1,6.1,0,0,0-3.09-.55,22.06,22.06,0,0,0-2.17.72c-.33.1-1,.41-1.12.44-1.09.54-2.17,1-3.26,1.6s-2.38,1.12-3.51,1.74c-2.34,1.29-4.63,2.65-6.93,4-.88.51-1.84,1.09-2.63,1.57s-1.67.92-2.42,1.5-1.25.81-1.92,1.19c-1.09.64-1.26,1.36-.46,2.21l.21.17a28.54,28.54,0,0,1,3.71,3.37c.75,1,1.72,1.77,2.42,2.73,1.22,1.7,2.34,3.47,3.39,5.24a23.59,23.59,0,0,1,2.29,6.16,50.31,50.31,0,0,1,1.17,6.65c.37,3.23.54,37.44.7,57,.5.16,1,.34,1.48.52,0-22.07-.39-62.37-2.47-68a30.09,30.09,0,0,0-5.8-9.6c-.42-.48-6.56-5-5.68-5.51,1.25-.79,5.3-3,6.6-3.75,2.25-1.33,4.5-2.62,6.8-3.85,1.63-.88,3.26-1.74,4.89-2.55.83-.41,1.67-.82,2.46-1.23.46-.24,1-.41,1.5-.61a5.26,5.26,0,0,1,1.76-.38.75.75,0,0,1,.12.41,6.73,6.73,0,0,1,.17,1.33c0,.92,0,1.84,0,2.72a40.76,40.76,0,0,0,.29,5.08,1.25,1.25,0,0,0,.38,1,1.69,1.69,0,0,0,.91.2c.71,0,4.47,0,5.68.1,4.3.28,8.65.28,12.86,1.06h0c.5.1,1,.2,1.54.34,0,0,.13,0,.13.07s-.09.13-.21.13c-4.35-.13-8.65-.68-13-.78-1.38,0-2.76,0-4.13,0a8.49,8.49,0,0,0-3.47.68c-2.09,1.06-1.63,6.57-1.63,7.36,0,2.94,0,59.22.09,81.6l.71.55.35.21c3,2,6.19,3.67,8.89,6,.07-9.71.07-58.51.15-59.78.12-1.57.29-3.06.46-4.63.12-1.23.21-2.45.37-3.71.26-1.84.51-3.65.88-5.45.34-1.6.79-3.17,1.25-4.77a28,28,0,0,1,2.55-6c.54-1,1.17-1.9,1.8-2.86a26.47,26.47,0,0,1,4.63-5.17c.92-.79,1.84-1.5,2.8-2.29C320.57,180.92,320.69,180.34,320.23,179.9Z" transform="translate(-101.16 -9.92)"/><path class="cls-2" d="M295.87,270c2.05,1.36,4.21,2.58,6.24,4v-9.61h-7.28v5.09A5.45,5.45,0,0,1,295.87,270Z" transform="translate(-101.16 -9.92)"/><path class="cls-2" d="M297,314a4.35,4.35,0,0,1-2.12-1.75V432.91l4.3-27.57,2.69-89.83A22.49,22.49,0,0,1,297,314Z" transform="translate(-101.16 -9.92)"/><path class="cls-2" d="M274.27,178.46l2.54-.06,5.57-.12,5.53-.12a13.81,13.81,0,0,1,2.65.05c.5.08,2.34.58,1.81,1.38s-5.57.69-6.3.73c-1.74,0-6.25,0-8,.1l-4.91.28c-.67,0-1.35.11-2,.11l-1.43-.79Z" transform="translate(-101.16 -9.92)"/><polygon class="cls-2" points="193.67 119.07 47.3 116.64 44.44 125 44.44 148.08 65.89 154.8 119.06 165.23 127.52 169.55 103.16 188.49 81.21 217.12 67.93 253.04 65.89 267.85 68.95 302.33 83.42 343.55 110.65 375.55 140 393.93 176.7 404.14 192.68 406.55 196.23 406.55 198.55 375.88 170.06 373.04 147.97 367.9 128.31 354.4 110.95 334.96 97.04 303.72 94.99 266.07 101.12 242.19 114.14 220.74 136.58 200.83 157.04 188.83 175.16 185 193.57 180.7 193.67 119.07"/><polygon class="cls-2" points="189.54 118.54 335.91 116.1 338.77 124.47 338.77 147.55 317.32 154.27 264.15 164.7 255.69 169.02 280.05 187.95 302 216.59 315.28 252.51 317.32 267.31 314.26 301.8 299.79 343.02 272.56 375.02 243.21 393.4 206.51 403.61 190.53 406.02 186.98 406.02 184.66 375.35 213.15 372.51 235.24 367.37 254.9 353.87 272.26 334.43 286.17 303.19 288.22 265.53 282.09 241.66 269.07 220.21 246.63 200.29 226.17 188.29 208.05 184.46 189.64 180.17 189.54 118.54"/><polygon class="cls-2" points="56.19 396.14 72.7 396.14 75.08 392.74 62.65 373 50.57 341.85 47.67 315.5 46.14 309.51 39.08 312.83 19.93 341 9.34 376.49 9.34 402.91 10.73 414.02 14.31 417.08 22.74 404.83 33.21 439.04 50.74 466.27 72.02 486.7 101.12 504.74 144.36 519.38 171.93 531.98 191.44 546.95 215.5 529.59 243.42 518.53 282.06 504.57 316.95 482.95 341.12 454.53 357.8 415.72 359.33 406.55 366.14 416.57 371.08 417.08 373.97 406.02 372.14 365.34 361.38 341 350.82 323.29 338.77 310.7 333.46 312.23 333.29 324.66 328.87 350.87 318.82 374.87 308.44 391.72 308.44 396.14 315.76 398.36 327.33 398.36 330.23 400.23 316.1 425.42 300.44 445.17 282.23 456.74 259.64 462.36 238.14 459.46 223.5 446.87 212.78 426.95 208.7 409.93 206.82 402.27 174.25 403.46 173.46 419.29 162.91 444.66 148.27 456.57 129.89 463.38 107.59 459.98 85.97 449.59 73.04 434.78 61.46 418.44 56.02 402.78 53.63 397 56.19 396.14"/><polygon class="cls-2" points="224.2 239.51 227.12 242.57 237.21 242.57 245.76 234.02 246.91 221.51 243.59 210.66 232.61 201.08 206.7 190.23 179.25 190.23 160.1 195.72 147.34 203.51 133.8 224.06 132.01 244.1 135.84 259.22 154.48 280.23 179.38 294.78 208.87 313.55 216.01 322.1 218.57 332.06 219.84 341 214.1 349.5 205.42 356.44 200.65 359.76 186.91 359.76 173.89 355.82 160.87 343.68 158.06 332.44 163.16 319.17 164.82 310.49 162.27 306.02 150.91 304.74 141.72 311.25 135.34 326.19 134.06 336.91 140 350.19 148.36 359.76 166.23 367.04 178.23 369.72 183.8 369.72 209.55 367.9 221.12 365.76 233.63 359.12 247.68 347.63 253.29 336.66 256.74 320.32 254.82 311.89 252.01 301.81 247.8 296.95 221.76 274.61 200.95 261.59 170.06 241.42 165.84 228.66 168.53 217.12 176.7 208.61 188.25 205.81 204.53 205.17 212.82 209.51 218.7 215.12 224.2 223.93 224.2 233.51 224.2 239.51"/><polygon class="cls-2" points="179.93 180.7 181.3 189.17 183.04 217.34 181.74 309.78 188.53 377.8 197.97 374.02 197.97 357.34 197.97 175.63 181.12 177.25 179.93 180.7"/><polygon class="cls-2" points="190.55 68.06 191.54 121.53 181.91 118.87 177.97 107.89 174.91 105.34 152.19 90.53 141.21 65.51 141.21 46.1 147.84 28.74 162.65 14.7 181.91 6.53 194.38 6.53 193.58 29 178.23 31.48 168.01 39.72 160.1 49.68 162.14 64.03 167.79 73.68 173.38 80.32 177.72 80.32 181.91 71.24 184.66 68.32 190.55 68.06"/><polygon class="cls-2" points="190.78 68.06 189.75 121.53 199.64 118.87 203.69 107.89 206.84 105.34 230.18 90.53 241.46 65.51 241.46 46.1 234.64 28.74 219.43 14.7 199.64 6.53 186.84 6.53 187.66 29 203.43 31.48 213.93 39.72 222.05 49.68 219.95 64.03 214.15 73.68 208.41 80.32 203.95 80.32 199.64 71.24 196.82 68.32 190.78 68.06"/></g></g><g id="Capa_7" data-name="Capa 7"><polygon class="cls-3" points="73.75 118.53 40.84 118.69 40.84 143.06 42.43 147.83 106.54 159.99 122.57 162.62 135.04 158.55 154.1 152.72 179.27 147.82 195.99 149.45 214.37 150.13 235.05 157.72 246.86 162.62 264.84 158.4 300.25 151.2 329.47 146.47 332.25 127.37 329.47 118.69 183.3 120.33 73.75 118.53"/><polygon class="cls-4" points="39.62 113.64 37.58 121.63 66.52 121.78 332.25 121.63 328.43 114.59 323.62 113.64 214.09 114.59 39.62 113.64"/><path class="cls-4" d="M140.62,150.49,224.85,168s60.79-31.15,124.11,0l82.53-17.47v8.73l-82,15.9H218.23L142,157.74Z" transform="translate(-101.16 -9.92)"/><polygon class="cls-4" points="322.99 115.27 324.01 148.08 329.5 145.66 332.25 120.51 323.75 112.85 322.99 115.27"/><polygon class="cls-4" points="44.9 112.25 46.94 149.36 40.84 147.83 37.58 127.74 40.13 112.25 44.9 112.25"/></g><g id="Capa_6" data-name="Capa 6"><polygon class="cls-5" points="191.67 147.83 190.67 179.32 162.32 182.3 118.73 202.3 102.63 222.04 87.57 254.93 90.17 306.89 109.73 340 133.01 359.66 157.61 367.15 181.63 372.89 186.16 372.89 186.16 402.81 169.85 401.74 130.77 388.21 105.84 372 86.62 349.53 67.06 311.1 63.66 292.51 61.52 263.07 66.02 237.36 81.48 206.21 103.07 182.04 117.44 170.13 132.84 162.23 150.5 155.49 165.57 151.44 177.69 150.21 191.67 147.83"/><polygon class="cls-3" points="244.35 164.71 274.88 186.58 295.62 212.28 308.81 250.92 308.81 300.71 292.85 337.73 278.31 358.92 249.77 382.16 210.39 397.46 191.35 399.01 182.25 400.49 184.15 375.26 184.32 371.21 213.2 366.72 234.1 357.82 251.35 344.66 266.95 324.45 280.16 294.33 279.63 255.52 275.14 239.26 257.7 212.28 237.64 196.03 215.15 184.28 199.29 178.41 185.95 175.86 184.15 158.5 184.15 146.24 235.23 157.99 244.35 164.71"/><circle class="cls-6" cx="186.1" cy="275.68" r="124.58"/><ellipse class="cls-7" cx="185.79" cy="276.73" rx="101.86" ry="99.73"/><path class="cls-8" d="M149.55,405.15H168.7v-6.9l-9.57-13.69L147.26,349l-3.83-24.51-2.81-7.66-9.19,5.6s-41.2,51.33-22.47,101l9.19-10.9s14.3,45.62,24.51,56.51,30.71,36.86,85.66,54.13c55.79,17.53,57.53,31.32,57.53,31.32l21.58-15.66,15.14-7.66,20.43-7,24-7.49,31.15-16.85L415,486.76l11.91-13.95,9.75-12.13,18.51-46.94,5.79,8.34,3.57,2.56,2-3.07,3.75-17.19-4.94-35.74-12.08-25-13.62-20.26-5.62-6.55L430,318.08l-1,15L424.87,353,417,373.23l-12.76,24.68-1.71,5.62,8.27,1.87h12.67l-2.38,12.26L408,437.23l-15.83,15.49L381,461.57l-24,8L338.4,467l-12.76-7-11.92-14.3-10.89-31.15-.51-3.57-29.79,1.19-5.62,17.7-7.14,17L247,462.59l-11.84,3.58-20.84,4.08-19.75-6.8L171.09,444l-15.66-25.36Z" transform="translate(-101.16 -9.92)"/></g><g id="Capa_5" data-name="Capa 5"><polygon class="cls-9" points="162.01 6.19 143.96 23.06 133.99 45.19 137.49 72.06 152.81 94.07 165.07 100.19 171.54 104.76 173.93 80.25 162.56 72.06 157.85 68.24 157.85 61.53 153.96 51.62 157.85 42.41 165.07 31.91 187.58 25.36 203.54 31.91 213.32 47.23 213.32 61.87 204.01 72.06 202.18 78.55 197.41 80.93 197.75 101.7 203.2 101.7 224.65 87.06 235.88 59.83 235.88 48.25 232.13 30.89 218.2 13.87 204.9 6.19 187.58 2.3 162.01 6.19"/><path class="cls-9" d="M279.39,78.16" transform="translate(-101.16 -9.92)"/><path class="cls-4" d="M279.39,78.16l-6,10.77.86,17.92-.86,15.66,3.7,2.72,18.79.75,5.1-4.83-3.24-30.64s1.37-6.64.85-7.49l-.51-.85-3.23-5.28-10.72-2Z" transform="translate(-101.16 -9.92)"/><polygon class="cls-8" points="187.67 154.34 163.47 166.79 163.47 168.51 169.67 174.38 174.9 184.17 176.69 211.78 176.94 235.27 176.56 244.07 177.87 247.78 190.6 254.93 191.3 174.38 210.26 168.51 211.54 167.36 203.37 164.42 193.79 157.91 187.67 154.34"/><polygon class="cls-4" points="197.75 186.13 196.23 199.91 209.67 208.32 218.2 218.64 219.71 236 221.92 241.1 231.96 238.55 240.81 228.51 242.86 218.3 238.56 207.4 232.47 200.25 223.11 195.49 206.43 187.66 197.75 186.13"/><polygon class="cls-4" points="154.19 328.47 157.67 305.79 150.01 304.34 133.99 311.62 127.16 331.96 137.11 352.82 155.37 362.55 175.3 367.15 180.52 365.62 178.1 353.87 169.16 353.36 158.56 346.5 154.19 339.95 154.19 328.47"/><polygon class="cls-8" points="173.93 187.83 149.41 197.02 128.3 217.78 125.41 242.81 137.32 265.44 162.01 286.21 184.54 299.33 211.24 318.21 213.32 336.93 205.92 348.85 194.65 356.04 192.79 364.9 203.55 364.9 220.9 359.66 232.47 352.82 244.48 338.98 250.86 322.3 248.81 305.79 229.07 279.74 210.58 268.51 187.51 254.93 172.21 245.7 157.85 225.62 167.11 208.32 176.56 203.34 176.58 195.36 176.01 188.74 173.93 187.83"/><path class="cls-10" d="M140.81,315.91S126,344.47,127,371s7.15,68.43,31.32,92.94,128,60.59,128,60.59l1.38,28.61L279,548.72l-8.42-8.2L255,532.87l-9.86-3.93-22.46-7.59-21-8.28-28.41-16-18.17-13-15.27-18.7L121.89,423.8l-3.74-11.25-6.56,7.78-4.85,2.78L104.08,418V384.71l6.41-23.48,18.44-35.45,8.28-9Z" transform="translate(-101.16 -9.92)"/><path class="cls-10" d="M431.85,316.81s13.29,27.66,12.27,54.21S437,439.45,412.8,464s-126.47,60.59-126.47,60.59l.59,29.54,5.93-4.67,8.68-7,14.59-9.58,9.86-3.93,22.46-7.59,21-8.28,29.74-14L416,484l15.26-18.7,21.32-39.51L455,412l4.58,8.33,4.84,2.78,4.58-4.3V386.38l-6.51-25.15L442.2,325.78l-8.29-9Z" transform="translate(-101.16 -9.92)"/><polygon class="cls-5" points="186.54 524.68 194.18 539.57 186.54 545.73 186.54 524.68"/><polygon class="cls-5" points="184.29 523.74 175.43 539.42 185.05 544.18 184.29 523.74"/><polygon class="cls-4" points="199.67 405.19 200.05 402.81 171.69 401.04 172.86 404.55 188.13 447.06 199.67 405.19"/><polygon class="cls-9" points="178.86 297.44 176.56 304.59 177.97 352.82 185.76 415.91 191.16 414.64 194.65 302.59 182.25 296.17 178.86 297.44"/><line class="cls-10" x1="185.17" y1="544.18" x2="185.17" y2="514.64"/></g><g id="Capa_1" data-name="Capa 1"><path class="cls-2" d="M458.94,348a137.48,137.48,0,0,0-21.63-31.22c-1.73-1.91-3.8-3.48-6.6-2.38s-3.36,3.52-3.49,6.1c-.18,3.62-.64,7.2-1.08,10.79a157.38,157.38,0,0,1-16.92,53.63,145,145,0,0,1-8.07,13c-1.4,2.1-2.07,4.39-.78,6.81s3.55,2.7,6,2.6c4.08-.17,8.18-.13,12.25-.41,2.3-.16,2.68.42,1.84,2.5a116.62,116.62,0,0,1-15.75,27.67c-10.43,13.45-23.08,23.82-39.91,28.2-21.81,5.67-42.2-2.43-51.44-24.68a167.82,167.82,0,0,1-7.71-24.89c-.44-1.82,0-2.18,1.69-2.41A119.25,119.25,0,0,0,355,396.07c22.88-14.26,38.91-34.37,49.62-58.88,11.19-25.6,14.77-52.18,9.19-79.69-5.42-26.71-18.15-49.4-38.52-67.65a106.84,106.84,0,0,0-19.49-14.44,4,4,0,0,1,2.23-.88c7.46-1.46,14.91-3,22.37-4.38,15.65-3,31.31-5.82,46.95-8.82,4.46-.86,6.57-2.78,6.85-7.17a246,246,0,0,0,.74-25.9c-.12-3.11-1.35-5.84-4.25-7.36-2-1.06-4.3-1-6.53-.94-18.67.44-37.33,1-56,1.29-21.37.36-42.75.52-64.12.84-1.53,0-1.75-.44-1.84-1.84a3.91,3.91,0,0,1,2.51-4.29c9-4.58,17.11-10.39,23.58-18.19C338.9,85,342.9,70.21,339.9,54,335.51,30.81,317.18,14,293.68,10.49c-31.07-4.58-59,18.81-61,50.14-1.13,17.13,5.57,31.48,18,43.13a68,68,0,0,0,8.3,6.63,69.81,69.81,0,0,0,6,3.63,29.33,29.33,0,0,0,2.75,1.37,5.68,5.68,0,0,1,2.46,1.55,6.17,6.17,0,0,1,.89,2.15c.36,1.45.19,3.29-1.74,3.06a105.66,105.66,0,0,0-11.12-.23l-11.48-.08c-10.62-.07-21.25-.12-31.87-.23s-21.25-.28-31.87-.59c-12.63-.38-25.26-.74-37.89-1-4.48,0-7.28,2.53-7.88,7a18.49,18.49,0,0,0-.21,2.78c.17,8-.19,15.93.76,23.93.56,4.26,2.34,6.59,6.56,7.53,6.77,1.5,13.57,2.8,20.37,4.16,12.89,2.58,25.8,5.09,38.69,7.72,4.43.9,8.77,2.07,13.77,3.25-2.08,1.33-3.57,2.23-5,3.23A128.1,128.1,0,0,0,186,204.4c-16.55,20.32-25,43.93-27.55,69.76-1.64,16.82.6,33.33,5.53,49.45a128.26,128.26,0,0,0,42.92,63.54,121.33,121.33,0,0,0,59.84,26.19c1.45.21,2.42.48,1.93,2.38-2.32,8.95-4.82,17.81-8.91,26.18C250.64,460.61,232.46,470,212,466.29c-16.87-3.1-30.14-12.23-40.93-25.23-8.38-10.12-14.09-21.68-18.27-34.27,4.57,0,8.84,0,13,0,2.21,0,4.52-.1,5.52-2.38a6.7,6.7,0,0,0-.64-6.86q-2.6-3.77-5-7.68c-11.45-18.63-17-39.13-19.15-60.69-.32-3.41-.62-6.83-1-10.24-.22-2.28-.87-4.46-3.22-5.46-2.5-1-4.55.19-6.3,1.82a53.93,53.93,0,0,0-4.6,4.84,131.05,131.05,0,0,0-19.24,30.43,122.05,122.05,0,0,0-10.68,60.92,70.65,70.65,0,0,0,1.65,9.57c.53,2.48,1.66,4.77,4.53,5.41s4.52-1.23,6.09-3.06a45.29,45.29,0,0,0,2.91-4.23c1.68,5.17,3.16,10.1,4.87,14.94,10.31,29.31,28.76,52.21,54.66,69.21,17.23,11.32,36.53,17.76,56,23.76,12.4,3.84,24.7,7.9,35.48,15.5a149.61,149.61,0,0,1,14.24,12c3,2.68,6.56,2.8,8.89.12a52.68,52.68,0,0,1,4.45-4,91.27,91.27,0,0,1,29.44-18.12c11.07-4.28,22.47-7.52,33.77-11.08,21.11-6.65,40.35-16.37,56.66-31.73s27.88-33.83,35.88-54.65c1.82-4.76,3.27-9.66,4.91-14.54,2.07,2.59,4.65,6.54,8.49,5.93,3.3-.54,4.76-4,5.45-6.87a84.59,84.59,0,0,0,2.29-18.48C472.38,382.31,467.25,364.74,458.94,348ZM270.12,108.71c0,.34-.17.71-.57.72a1.16,1.16,0,0,1-.56-.16c-.39-.19-.77-.42-1.15-.65-1-.65-2.13-1.28-3.19-1.92a57.29,57.29,0,0,1-17.22-16.21A48.67,48.67,0,0,1,239,68.71a47.52,47.52,0,0,1,13.28-38.44,48.73,48.73,0,0,1,38.25-14A50,50,0,0,1,326,36.33a46.66,46.66,0,0,1,9.13,26.06,47.91,47.91,0,0,1-8.74,28.21,55.64,55.64,0,0,1-8.59,9.67,57.74,57.74,0,0,1-14.42,9.62,1.67,1.67,0,0,1-1.52.06,1.45,1.45,0,0,1-.51-.56,5.85,5.85,0,0,1-.41-2.85c0-1.16,0-2.31,0-3.47q0-3.42.25-6.83a8.26,8.26,0,0,1,.86-3.75,9.86,9.86,0,0,1,3.28-2.86,30.85,30.85,0,0,0,13.11-27.37,31.2,31.2,0,0,0-3.35-11.79A33,33,0,0,0,301.9,36.64a34.91,34.91,0,0,0-30.64-1.22c-9.49,4.2-17.08,13.09-18.53,23.37A28.66,28.66,0,0,0,254,71.59,36.06,36.06,0,0,0,264.3,87.2a43.53,43.53,0,0,1,3.43,2.91c2.8,3.07,2.55,6.92,2.55,10.76C270.28,103.48,270.32,106.1,270.12,108.71Zm-.67-24.64c-8-6.11-12.26-16.77-9.69-26.11,2.89-10.47,9.77-17.33,20.55-19.16,17.25-2.92,32.77,10.59,32.07,27.08-.29,7-4.74,15.28-10.45,18.65h-.09C301,71.41,284.36,69,276.06,75.21a12.77,12.77,0,0,0-4.78,8.16C271,84.81,270.77,85.07,269.45,84.07Zm7.8,23a187.36,187.36,0,0,1,.22-20.66c.6-6.84,3.3-8.22,9.62-8.26s7.38,2.92,8.14,6.21.56,7.54.6,10.26c.15,8.7-.4,18.34-.4,27,0,2.43-16.67,2.66-18-.06a3.93,3.93,0,0,1-.25-1.77C277.28,115.57,277.34,111.33,277.25,107.08ZM211,169.33q-31.2-6.86-62.61-12.67c-4.2-.78-5-1.5-5.2-5.78-.32-7.15-.48-14.3-.68-21.45-.07-2.36,1-3.44,3.55-3.36,14.94.46,29.9.73,44.85,1.19,25.72.8,51.46,1,77.2,1.14,36.42.15,72.84-.06,109.26-1,3.52-.1,7.05-.18,10.57-.27l10.63-.29,10.62-.31c3.5-.11,7-.2,10.5-.33l5.2-.18c1.16,0,2.6-.21,3.63.41s1.16,2,1.11,3.14c-.35,7.46-.26,15-.62,22.42-.11,2.43-1.33,3.82-3.87,4.27-12.94,2.3-25.88,4.62-38.78,7.1-11.45,2.2-22.87,4.57-34.28,6.95a7.6,7.6,0,0,1-5.07-.61,141.6,141.6,0,0,0-17.33-6.81A140,140,0,0,0,237.27,166a128.83,128.83,0,0,0-12.62,5.73,3.53,3.53,0,0,1-2.43.31C218.47,171.13,214.71,170.23,211,169.33ZM466.27,410.65c-.63,3.11-.68,6.39-1.38,9.54-.15.67-.1,1.66-.95,1.87-1.05.27-1.36-.78-1.8-1.42a66.53,66.53,0,0,1-3.8-6.61c-.51-1-1-2-1.45-2.95-.35-.72-.7-1.43-1.09-2.13-.19-.34-.38-.68-.59-1a6.44,6.44,0,0,0-.62-.92.36.36,0,0,0-.25-.14.43.43,0,0,0-.16.05c-.29.14-.34.33-.42.62s-.12.48-.18.72c-.25,1.1-.47,2.21-.69,3.31s-.47,2.34-.75,3.5a146,146,0,0,1-5,16.51,137.31,137.31,0,0,1-9.56,20.81,155.66,155.66,0,0,1-14.13,21.2C408.66,492,389.89,504.82,367.89,513c-13.29,5-27,8.65-40.36,13.34-13,4.56-25.06,10.75-35.06,20.44-1.44,1.39-3.38,2.12-4.73,3.74-1.06,1.29-2.12.09-3-.71a130.87,130.87,0,0,0-11.92-10c-10.71-7.61-22.79-12.12-35.19-16.12C221.4,518.53,205.1,513.5,190,505.4a170.62,170.62,0,0,1-18.72-11.79c-1.48-1.06-2.64-2.57-4.11-3.66-9.45-7-17.1-15.77-23.9-25.32-3.08-4.32-5.42-10-8.81-13.91l-.11-.11.09-.13c-6.51-11.63-10.75-24.11-13.87-37l-1.44-5.94c-.2-.81-.27-1.64-.52-2.44a.52.52,0,0,0-.16-.29.42.42,0,0,0-.49,0,2.06,2.06,0,0,0-.59,1c-.17.43-.36.85-.55,1.27a32.06,32.06,0,0,1-1.45,2.94c-1.31,2.28-2.82,4.45-4.24,6.66-.59.92-1.18,1.84-1.8,2.74-.23.34-.45.67-.7,1a1.6,1.6,0,0,1-.41.45c-.89-.27-1.51-5.65-1.66-7.14s-.29-3-.39-4.57c-.2-3.05-.28-6.11-.24-9.16a118,118,0,0,1,1.92-19.76A115.12,115.12,0,0,1,113,361.11c.24-.65.48-1.3.74-1.94.83-2.16,1.72-4.28,2.67-6.39s1.94-4.17,3-6.22,2.17-4.06,3.33-6,2.38-3.94,3.65-5.86,2.59-3.8,4-5.65,2.8-3.67,4.27-5.45c.73-.88,1.48-1.76,2.24-2.63.36-.41.73-.82,1.07-1.24a3.46,3.46,0,0,1,1.25-1c.49-.21.74.17.86.61a34.25,34.25,0,0,1,.85,5.9c.19,2.05.45,4.07.66,6.12.14,1.37.29,2.73.47,4.09q.85,6.87,2.29,13.63c1,4.45,2.1,8.87,3.45,13.22s2.91,8.6,4.68,12.79,3.77,8.33,6,12.34c1.11,2,2.27,4,3.49,6,.92,1.49,1.88,3,2.82,4.45a18.11,18.11,0,0,0,1,1.55c.31.4.59.83.35,1.34-.34.73-1.32.36-2,.36-3.11,0-6.23,0-9.34,0L150,401a19.47,19.47,0,0,0-4.32.1c.17,2.6,1.28,5.49,2.13,7.95,6,17.13,15.58,33.92,29.09,45.9a67,67,0,0,0,34.34,16.56c21.23,3.33,42.08-4.89,52.7-26.1,4.62-9.22,7.22-19.06,9.89-28.91.24-.92,0-2.26,1.62-2,2.84.18,5.67.37,8.51.49a5.23,5.23,0,0,1-.52-1.93c-.1-1.24-.27-2.45-.46-3.67a120,120,0,0,1-45-9.94c-40.26-17.56-68.6-57-73.5-100.6-3.79-34.52,5.44-65.46,27.26-92.39,18.36-22.67,42.1-37,70.81-42.48a137.09,137.09,0,0,1,44.6-.83,108.51,108.51,0,0,1,37.65,12,128.1,128.1,0,0,1,29,21.57,136.55,136.55,0,0,1,12,13.42,112.33,112.33,0,0,1,22.3,48.36,132.46,132.46,0,0,1,2.23,31.42,119,119,0,0,1-3.3,22.84,128.87,128.87,0,0,1-20.24,45.34c-3,4.27-5.77,8.91-9.44,12.64-12.83,13-27.08,24.17-44.54,30.41a139.37,139.37,0,0,1-39.87,8.1c.19,1.26.36,2.52.47,3.79a5,5,0,0,1-.22,2c1.93-.08,3.86-.23,5.79-.48s1.79,1.23,2,2.23a146.08,146.08,0,0,0,5.71,20.54c3.67,9.91,8.46,19.15,17.13,25.75,3.95,3,8.45,4.93,13,6.75,15.77,4.68,30.58,1.7,44.87-5.58,3.62-1.85,6.82-4.34,10.29-6.41a138.55,138.55,0,0,0,15.71-15.69,114.86,114.86,0,0,0,20.07-37c.94-2.85.4-3.58-2.76-3.51-4.92.1-9.84.39-14.76.39-1.63,0-3.88.85-4.63-.52s1.17-2.74,2-4c12.26-18.51,19.63-38.85,23-60.73a91.82,91.82,0,0,0,1.24-13.23c0-.91-.07-2.94,1-3.32,1.29-.44,3.35,2.92,4,3.74,1.44,1.7,2.82,3.44,4.17,5.2,2.7,3.55,5.22,7.23,7.64,11A116.91,116.91,0,0,1,466.56,389,66.69,66.69,0,0,1,466.27,410.65Z" transform="translate(-101.16 -9.92)"/><path class="cls-2" d="M343.68,300.06a95.37,95.37,0,0,0-17.27-15.76c-6-4.34-12.33-8.28-18.47-12.35s-12.9-6.84-19.14-10.64c-8.3-5.05-17.83-11.1-22.77-19.88-6.33-11.25,1.94-21.14,12.21-25.79a15.5,15.5,0,0,1-.51-6.26c0-.35,0-.7,0-1a33.46,33.46,0,0,0-17.67,12.15,23.72,23.72,0,0,0-4.85,16c.57,6.52,5.42,10.9,9.95,15.1,10.78,10,24,16.66,36.56,24,10.77,6.26,21.3,13.08,30.4,21.58a70.5,70.5,0,0,1,5.45,5.62c6,6.95,10.67,15.28,11.12,24.6.91,19-14.46,33.88-31.09,41.18a64.55,64.55,0,0,1-7.63,2.8c-3.45,1-8.06,2.67-11.64,1.69-6-1.63,2.82-7.76,4.9-8.94,6.28-3.55,11.52-7.45,14-14.59a27,27,0,0,0,1.22-10,22.47,22.47,0,0,0-1.43-8.05,37.76,37.76,0,0,0-6.8-9.74C304.09,314.94,296.15,310,288,306c-7.4-3.65-14.74-7.68-21.86-11.86-10.28-6-20.25-13.18-27.23-23-10.2-14.35-12.58-32.68-2.6-47.82,9.19-14,22.86-20.51,39-22.64.58-.08,1.17-.13,1.75-.19a43.64,43.64,0,0,0-1.81-5.94,76.76,76.76,0,0,0-19.42,5.21,65.35,65.35,0,0,0-11.31,6.05,49.11,49.11,0,0,0-16.67,19c-.24.49-.47,1-.7,1.48-7.93,17.6-5,34.27,6.52,49.47,7.4,9.79,17.39,16.65,27.87,22.68,3.2,1.84,7.34,2.53,10,5.18a12.26,12.26,0,0,1,2.94,5.61,28.05,28.05,0,0,1,.66,7c.57,14.82.82,29.65,1.23,44.48,0,.92-.37,1.85-1.44,1.81a3.41,3.41,0,0,1-1.4-.46c-5.71-2.93-12.12-7-15.09-12.9a18.29,18.29,0,0,1,1.3-18.18,20,20,0,0,0,3-6.43c.95-4.25-.09-9.31-3.51-12.21s-8.55-3.23-12.81-1.83c-12.07,4-21.25,18.43-20,31.74,1,11.08,6.58,20,15.9,25.25,13.79,7.71,24.69,10.94,38.43,11a4.8,4.8,0,0,0,2.58-.48,1.54,1.54,0,0,0,.37-.35,4.9,4.9,0,0,1,.46-1,17.11,17.11,0,0,0-.13-4.23c-.11-2.89-.35-5.77-.63-8.64-.57-5.77-1.35-11.51-1.82-17.28-.58-7-.91-14-1.54-21-.23-2.58-.55-5.15-.64-7.73-.06-1.87-.27-4.29.57-6,1.24-2.62,5.59.61,6.91,1.56,2.49,1.79,6.19,4.16,6,7.62-.48,10.72-1,21.44-1.4,32.16-.21,5.36-.4,10.72-.54,16.09,0,1.2-.45,3.53-.39,5.57a4.39,4.39,0,0,1,2.85,3.82,69.74,69.74,0,0,0,49-20.59C359.18,340.84,358.25,317.38,343.68,300.06Zm-45.43,42.79q.21-7.43.44-14.86c.06-2.25.27-3.92.2-6.86,0-.4.76.4.87.5.71.66,1.55,1.21,2.31,1.8s1.77,1.41,2.61,2.16c.66.59,1.3,1.2,1.91,1.85a19.18,19.18,0,0,1,4.86,16.69,32.58,32.58,0,0,1-2.43,8c-2.14,4.83-6,8.23-10.62,10.59a.5.5,0,0,1-.72-.46C297.88,355.78,298.06,349.3,298.25,342.85Zm-19.95,31c-1.22,1.47-4,.85-5.81.59a59.85,59.85,0,0,1-20.06-6.31,77.93,77.93,0,0,1-8.39-4.66,29.54,29.54,0,0,1-12.28-22.65,24,24,0,0,1,.37-5.29,25.8,25.8,0,0,1,12.54-17.48c2.72-1.6,5.57-2.75,8.83-2.25,8.49,1.32-2.14,17.08-3.18,20.74a20.81,20.81,0,0,0,5.21,19.65c6.07,6,12.54,7.07,20.21,10C278,367,280.07,371.73,278.3,373.87Z" transform="translate(-101.16 -9.92)"/><path class="cls-2" d="M294.19,198.38c0,.61,0,1.21,0,1.82a84.82,84.82,0,0,1,13.16,2.08c10,2.43,20.43,6.52,27,14.86,6.18,7.86,6.87,18.73.29,26.59a14.31,14.31,0,0,1-5.95,4.2,4.66,4.66,0,0,1-6.29-2.66c-1-2.27-.69-4.87-.43-7.25,1.16-10.56-4.9-19.75-13.5-25.28a37.16,37.16,0,0,0-14.64-5.46q-.3,3.15-.77,6.28a27.39,27.39,0,0,1,12.71,4.6A22.61,22.61,0,0,1,315.31,240c-.88,6.37.89,10.33,5.47,12.67,4.79,2.47,11.67,1.29,15.69-2.3,12.2-10.82,12.41-28.35-.42-40.26a50.49,50.49,0,0,0-14.57-9.38A89.78,89.78,0,0,0,294,194.09C294.07,195.52,294.16,197,294.19,198.38Z" transform="translate(-101.16 -9.92)"/><path class="cls-2" d="M248.5,372.12a93,93,0,0,1-21-12.07A83.27,83.27,0,0,1,208,338.47a98.72,98.72,0,0,1-11.78-28.13c-8.08-31.68-2.17-61,19.74-85.78a94.72,94.72,0,0,1,26.93-20.87A116.88,116.88,0,0,1,255,198.21,95.7,95.7,0,0,1,275.55,193c-.66-1.66-1.72-3.66-2.46-5.4a105.08,105.08,0,0,0-28.64,8.81,98.89,98.89,0,0,0-22.74,14.72q-2.33,2-4.51,4.17c-6.19,6.12-12.24,12.48-16.74,20a94.31,94.31,0,0,0-11.59,30.3,102.36,102.36,0,0,0,1.53,46.57c6.28,23.21,19.86,43.1,40.08,56.35a101.73,101.73,0,0,0,52.63,16.18c.15-1.57.26-3.15.31-4.73a108.21,108.21,0,0,1-15.36-1.46C261.3,377.37,254.8,374.77,248.5,372.12Z" transform="translate(-101.16 -9.92)"/><path class="cls-2" d="M366,224.21A91.54,91.54,0,0,0,347.52,206c-15.17-11.44-34.56-17.78-53.77-18.92-.06,1.77,0,3.54.12,5.31a97.63,97.63,0,0,1,18.49,3.05A92.19,92.19,0,0,1,346.7,212.7q2.46,2,4.79,4.16c14.64,13.58,23.15,30.55,27.15,49.93a102.7,102.7,0,0,1,2,16.29l0,0a96.48,96.48,0,0,1-39.25,79.67,93.84,93.84,0,0,1-47.94,16.94c0,1.62-.15,3.23-.29,4.83,2.3-.14,4.6-.33,6.89-.61,22.76-2.82,42.38-12.18,58.26-28.64a99.68,99.68,0,0,0,28-65.93A101.56,101.56,0,0,0,366,224.21Z" transform="translate(-101.16 -9.92)"/><circle class="cls-11" cx="79.34" cy="135.67" r="6.64"/><circle class="cls-11" cx="184.86" cy="135.6" r="6.64"/><circle class="cls-11" cx="293.57" cy="135.67" r="6.64"/></g><g id="Capa_4" data-name="Capa 4"><path class="cls-2" d="M292.67,326c.12,13.59-1.4,28.13-2,41.7-.83,19.49-1.31,39-1.7,58.47-1.68-14.09-1.74-28.31-3.09-42.44-1.3-13.52-3.6-26.93-4.88-40.46-.43-4.45-.75-8.9-.93-13.36a14.29,14.29,0,0,0-.64-4.56c-.48-1.3-1.55-2.73-3-2.93.24,0,1.11,17.43,1.23,19,0,9.09,1.32,18.38,1.95,27.46q1,14.52,2,29l0,.27c1.37,19.6,2.89,39.15,6.06,58.56.47,2.89,2.23,1,2.6-.79,3.24-15.79,4-32.12,5.44-48.14,1-11,1-22,1.12-33.05l.54-37.09c0-2.94-.75-4.45-2.32-6.84C294.59,330.08,292.67,326.83,292.67,326Z" transform="translate(-101.16 -9.92)"/><path class="cls-2" d="M314.23,176.9a5.15,5.15,0,0,0-1-.78c-2.34-1.43-4.64-2.9-7-4.26-2.59-1.5-5.17-3-7.85-4.39a47.27,47.27,0,0,0-7.18-3.37,6.1,6.1,0,0,0-3.09-.55,22.06,22.06,0,0,0-2.17.72c-.33.1-1,.41-1.13.44-1.08.54-2.17,1-3.25,1.6s-2.38,1.12-3.51,1.74c-2.34,1.29-4.64,2.65-6.93,4-.88.51-1.84,1.09-2.63,1.57s-1.67.92-2.43,1.5a22,22,0,0,1-1.92,1.19c-1.08.64-1.25,1.36-.46,2.21l.21.17a28,28,0,0,1,3.72,3.37c.75,1,1.71,1.77,2.42,2.73,1.21,1.7,2.34,3.47,3.38,5.24a23.26,23.26,0,0,1,2.3,6.16,52,52,0,0,1,1.17,6.65c.37,3.23.53,37.44.69,57,.51.16,1,.34,1.48.52,0-22.07-.39-62.37-2.46-68a30.3,30.3,0,0,0-5.81-9.6c-.41-.48-6.55-5-5.67-5.51,1.25-.79,5.3-3,6.59-3.75,2.26-1.33,4.51-2.62,6.81-3.85,1.63-.88,3.25-1.74,4.88-2.55.84-.41,1.67-.82,2.47-1.23.46-.24,1-.41,1.5-.61a5.26,5.26,0,0,1,1.75-.38.69.69,0,0,1,.13.41,7.57,7.57,0,0,1,.17,1.33c0,.92-.05,1.84-.05,2.72a40.76,40.76,0,0,0,.3,5.08,1.27,1.27,0,0,0,.37,1,1.72,1.72,0,0,0,.92.2c.71,0,4.47,0,5.68.1,4.3.28,8.64.28,12.86,1.06h0c.5.1,1.05.2,1.55.34,0,0,.12,0,.12.07s-.08.13-.21.13c-4.34-.13-8.64-.68-13-.78q-2.07,0-4.14,0a8.45,8.45,0,0,0-3.46.68c-2.09,1.06-1.63,6.57-1.63,7.36,0,2.94,0,59.22.08,81.6l.72.55c.11.07.23.13.34.21,3,2,6.19,3.67,8.9,6,.06-9.71.07-58.51.15-59.78.12-1.57.29-3.06.46-4.63.12-1.23.2-2.45.37-3.71.25-1.84.5-3.65.88-5.45.33-1.6.79-3.17,1.25-4.77a27.52,27.52,0,0,1,2.55-6c.54-1,1.17-1.9,1.79-2.86a26.53,26.53,0,0,1,4.64-5.17c.92-.79,1.84-1.5,2.8-2.29C314.56,177.92,314.69,177.34,314.23,176.9Z" transform="translate(-101.16 -9.92)"/><path class="cls-2" d="M289.86,267c2.05,1.36,4.22,2.58,6.25,4v-9.61h-7.28v5.09A5.1,5.1,0,0,1,289.86,267Z" transform="translate(-101.16 -9.92)"/><path class="cls-2" d="M290.94,311a4.37,4.37,0,0,1-2.11-1.75V429.91l4.3-27.57,2.68-89.83A22.66,22.66,0,0,1,290.94,311Z" transform="translate(-101.16 -9.92)"/><path class="cls-2" d="M268.27,175.46l2.54-.06,5.57-.12,5.52-.12a13.9,13.9,0,0,1,2.66.05c.5.08,2.33.58,1.8,1.38s-5.56.69-6.3.73c-1.74,0-6.24,0-8,.1l-4.9.28c-.67,0-1.35.11-2,.11l-1.43-.79Z" transform="translate(-101.16 -9.92)"/><path class="cls-12" d="M180.5,140.7s-.28.07-.32.08a6,6,0,0,0-2.43,1.3,3.06,3.06,0,0,0-.51.57c-.2.28-.42.58-.15.88a1.71,1.71,0,0,0,.53.44,1,1,0,0,0,.62,0,1.48,1.48,0,0,0,1.19-1.18,3.27,3.27,0,0,1,0-.45,2.68,2.68,0,0,1,.46-.78Z" transform="translate(-101.16 -9.92)"/><path class="cls-12" d="M286.1,141.09a1.14,1.14,0,0,1-.33.08,6,6,0,0,0-2.42,1.31,2.72,2.72,0,0,0-.51.56c-.2.28-.42.58-.15.88a1.71,1.71,0,0,0,.53.44,1,1,0,0,0,.62,0,1.48,1.48,0,0,0,1.19-1.18,3.27,3.27,0,0,1,0-.45,2.68,2.68,0,0,1,.46-.78Z" transform="translate(-101.16 -9.92)"/><path class="cls-12" d="M395.28,141.09a1.14,1.14,0,0,1-.33.08,6.06,6.06,0,0,0-2.43,1.31,3.43,3.43,0,0,0-.51.56c-.19.28-.41.58-.14.88a1.6,1.6,0,0,0,.53.44,1,1,0,0,0,.62,0,1.47,1.47,0,0,0,1.18-1.18,3.26,3.26,0,0,1,.05-.45,2.47,2.47,0,0,1,.46-.78Z" transform="translate(-101.16 -9.92)"/></g></svg>